<svg xmlns="http://www.w3.org/2000/svg" xmlns:xlink="http://www.w3.org/1999/xlink" fill="none" version="1.1" width="200" height="200" viewBox="0 0 200 200"><g><path d="M100,0C45,0,4.44089e-16,45,4.44089e-16,100C4.44089e-16,155,45,200,100,200C155,200,200,155,200,100C200,45,155,0,100,0C100,0,100,0,100,0ZM79.4711,153.317C79.4711,153.317,28.2212,102.067,28.2212,102.067C28.2212,102.067,42.5962,87.6923,42.5962,87.6923C42.5962,87.6923,79.5192,124.615,79.5192,124.615C79.5192,124.615,157.452,46.6827,157.452,46.6827C157.452,46.6827,171.827,61.0577,171.827,61.0577C171.827,61.0577,79.4711,153.317,79.4711,153.317C79.4711,153.317,79.4711,153.317,79.4711,153.317Z" fill="#19C700" fill-opacity="1" style="mix-blend-mode:passthrough"/></g></svg>